<svg xmlns="http://www.w3.org/2000/svg" width="38" height="38" viewBox="0 0 38 38">
    <path fill="#E11500" fill-rule="evenodd" d="M36.168 19.492c-.16-.313-.16-.671 0-.984l1.477-2.9c.822-1.614.17-3.538-1.483-4.38L33.19 9.715c-.321-.163-.54-.453-.603-.796l-.581-3.179c-.324-1.77-2.03-2.959-3.884-2.707l-3.33.452c-.36.049-.715-.062-.976-.304L21.4.937c-1.346-1.25-3.454-1.25-4.8 0l-2.417 2.244c-.261.242-.617.353-.976.304l-3.33-.452c-1.854-.252-3.56.938-3.884 2.708l-.58 3.178c-.063.343-.283.633-.603.797l-2.971 1.512c-1.655.842-2.306 2.766-1.484 4.38l1.477 2.9c.16.313.16.672 0 .984l-1.477 2.9c-.822 1.614-.17 3.538 1.483 4.38l2.971 1.513c.321.163.54.453.603.796l.581 3.179C6.288 33.87 7.728 35 9.383 35c.162 0 .328-.01.494-.033l3.33-.452c.36-.049.715.062.976.304l2.417 2.244c.673.625 1.536.937 2.4.937.863 0 1.727-.312 2.4-.937l2.417-2.244c.261-.242.617-.352.976-.304l3.33.452c1.855.252 3.56-.938 3.884-2.707l.58-3.179c.063-.343.283-.633.604-.796l2.97-1.513c1.655-.842 2.306-2.766 1.484-4.38l-1.477-2.9z"/>
</svg>
