<svg width="38" height="38" xmlns="http://www.w3.org/2000/svg">

 <g>
  <title>background</title>
  <rect fill="none" id="canvas_background" height="602" width="802" y="-1" x="-1"/>
 </g>
 <g>
  <title>Layer 1</title>
  <path id="svg_1" d="m36.168,19.492c-0.16,-0.313 -0.16,-0.671 0,-0.984l1.477,-2.9c0.822,-1.614 0.17,-3.538 -1.483,-4.38l-2.972,-1.513c-0.321,-0.163 -0.54,-0.453 -0.603,-0.796l-0.581,-3.179c-0.324,-1.77 -2.03,-2.959 -3.884,-2.707l-3.33,0.452c-0.36,0.049 -0.715,-0.062 -0.976,-0.304l-2.416,-2.244c-1.346,-1.25 -3.454,-1.25 -4.8,0l-2.417,2.244c-0.261,0.242 -0.617,0.353 -0.976,0.304l-3.33,-0.452c-1.854,-0.252 -3.56,0.938 -3.884,2.708l-0.58,3.178c-0.063,0.343 -0.283,0.633 -0.603,0.797l-2.971,1.512c-1.655,0.842 -2.306,2.766 -1.484,4.38l1.477,2.9c0.16,0.313 0.16,0.672 0,0.984l-1.477,2.9c-0.822,1.614 -0.17,3.538 1.483,4.38l2.971,1.513c0.321,0.163 0.54,0.453 0.603,0.796l0.581,3.179c0.295,1.61 1.735,2.74 3.39,2.74c0.162,0 0.328,-0.01 0.494,-0.033l3.33,-0.452c0.36,-0.049 0.715,0.062 0.976,0.304l2.417,2.244c0.673,0.625 1.536,0.937 2.4,0.937c0.863,0 1.727,-0.312 2.4,-0.937l2.417,-2.244c0.261,-0.242 0.617,-0.352 0.976,-0.304l3.33,0.452c1.855,0.252 3.56,-0.938 3.884,-2.707l0.58,-3.179c0.063,-0.343 0.283,-0.633 0.604,-0.796l2.97,-1.513c1.655,-0.842 2.306,-2.766 1.484,-4.38l-1.477,-2.9z" fill-rule="evenodd" fill="#E11500"/>
  <text style="cursor: move;" stroke="null" font-weight="bold" transform="rotate(-0.2668418288230896 19.17568206787253,28.43245124816849) matrix(1.0438154123436183,0,0,1.061450859054844,11.224075604419463,-4.4974060937350675) " xml:space="preserve" text-anchor="start" font-family="Arvo, sans-serif" font-size="10" id="svg_3" y="34.65151" x="-5.10176" stroke-opacity="null" stroke-width="0" fill="#ffffff">% off</text>
 </g>
</svg>