<?xml version="1.0" standalone="no"?>
<!DOCTYPE svg PUBLIC "-//W3C//DTD SVG 20010904//EN"
 "http://www.w3.org/TR/2001/REC-SVG-20010904/DTD/svg10.dtd">
<svg version="1.0" xmlns="http://www.w3.org/2000/svg"
 width="213.000000pt" height="211.000000pt" viewBox="0 0 213.000000 211.000000"
 preserveAspectRatio="xMidYMid meet">
<metadata>
Created by potrace 1.16, written by Peter Selinger 2001-2019
</metadata>
<g transform="translate(0.000000,211.000000) scale(0.100000,-0.100000)"
fill="#000000" stroke="none">
<path d="M960 2049 c-92 -11 -235 -50 -316 -88 -275 -128 -485 -394 -549 -696
-23 -107 -23 -303 0 -410 105 -494 576 -840 1071 -784 328 36 580 193 752 468
99 159 144 322 144 521 0 209 -51 382 -165 552 -167 251 -420 403 -730 437
-106 12 -100 12 -207 0z m220 -134 c124 -16 219 -44 315 -92 230 -116 406
-326 465 -559 78 -304 -13 -604 -252 -829 -258 -243 -655 -314 -997 -178 -68
27 -77 32 -171 91 -76 48 -217 195 -263 273 -259 443 -94 971 378 1207 84 42
184 71 295 87 123 17 109 17 230 0z"/>
<path d="M1538 1543 c-8 -10 -23 -37 -33 -60 l-18 -43 -429 0 c-235 0 -428 -3
-428 -7 0 -5 31 -99 69 -210 l68 -203 -33 -6 c-71 -13 -111 -116 -66 -170 35
-41 60 -44 372 -44 l300 0 0 30 0 30 -298 0 c-164 -1 -305 2 -314 5 -24 9 -30
33 -15 63 l12 27 303 3 303 2 16 38 c8 20 23 55 33 77 10 22 48 108 85 190 37
83 78 171 91 198 l24 47 55 0 c52 0 55 1 55 25 0 24 -2 25 -68 25 -53 0 -72
-4 -84 -17z m-92 -166 c2 -7 -10 -44 -27 -82 -17 -39 -40 -90 -51 -115 -12
-25 -34 -73 -49 -107 l-29 -63 -207 1 c-115 1 -219 4 -233 8 -22 6 -32 27 -82
171 -31 91 -57 170 -57 177 -1 19 26 20 387 22 272 1 344 -2 348 -12z"/>
<path d="M797 759 c-21 -12 -47 -61 -47 -89 0 -60 70 -117 127 -104 60 14 101
81 82 131 -19 52 -48 73 -98 73 -25 0 -54 -5 -64 -11z"/>
<path d="M1145 758 c-33 -19 -44 -41 -45 -89 0 -73 61 -118 135 -98 45 13 65
43 65 100 0 63 -35 99 -94 99 -22 0 -50 -6 -61 -12z"/>
</g>
</svg>
